# xmcd CD database file
#
# Track frame offsets:
#	150
#	21195
#	39239
#	63395
#	81934
#	103234
#	120749
#	139545
#	156834
#	176024
#	198339
#	221322
#	242181
#	260965
#
# Disc length: 3679 seconds
#
# Revision: 2
# Processed by: cddbd v1.4PL0 Copyright (c) Steve Scherf et al.
# Submitted via: CDex 1.50beta10
#
DISCID=c70e5d0e
DTITLE=Faith Hill - Cry
DYEAR=1900
DGENRE=Country
TTITLE0=Free
TTITLE1=Cry
TTITLE2=One
TTITLE3=When the lights go Down
TTITLE4=Beautiful
TTITLE5=x
TTITLE6=x
TTITLE7=x
TTITLE8=x
TTITLE9=x
TTITLE10=x
TTITLE11=x
TTITLE12=x
TTITLE13=x
EXTD=
EXTT0=
EXTT1=
EXTT2=
EXTT3=
EXTT4=
EXTT5=
EXTT6=
EXTT7=
EXTT8=
EXTT9=
EXTT10=
EXTT11=
EXTT12=
EXTT13=
PLAYORDER=
